<svg width="1200" height="1200" viewBox="0 0 1200 1200" 
  className="text-red-500"

fill="currentColor" xmlns="http://www.w3.org/2000/svg">
<g clip-path="url(#clip0_5_16)">
<path d="M227 278.716L228.572 280.66L229.5 279.909V278.716H227ZM1011 266.225H1008.5V267.471L1009.5 268.222L1011 266.225ZM229.5 28C229.5 27.7239 229.724 27.5 230 27.5V22.5C226.962 22.5 224.5 24.9624 224.5 28H229.5ZM229.5 278.716V28H224.5V278.716H229.5ZM29.5 682.831C29.5 523.096 106.342 379.514 228.572 280.66L225.428 276.772C102.158 376.467 24.5 521.422 24.5 682.831H29.5ZM627 1222.5C296.765 1222.5 29.5 980.65 29.5 682.831H24.5C24.5 983.876 294.493 1227.5 627 1227.5V1222.5ZM1224.5 682.831C1224.5 980.65 957.235 1222.5 627 1222.5V1227.5C959.507 1227.5 1229.5 983.876 1229.5 682.831H1224.5ZM1009.5 268.222C1140.94 367.258 1224.5 516.265 1224.5 682.831H1229.5C1229.5 514.516 1145.06 364.097 1012.5 264.228L1009.5 268.222ZM1008.5 28V266.225H1013.5V28H1008.5ZM1008 27.5C1008.28 27.5 1008.5 27.7239 1008.5 28H1013.5C1013.5 24.9624 1011.04 22.5 1008 22.5V27.5ZM230 27.5H1008V22.5H230V27.5Z"/>
</g>
<defs>
<clipPath id="clip0_5_16">
<rect width="1200" height="1200" fill="white"/>
</clipPath>
</defs>
</svg>
