<?xml version="1.0" encoding="iso-8859-1"?>
<!-- Uploaded to: SVG Repo, www.svgrepo.com, Generator: SVG Repo Mixer Tools -->
<svg fill="#000000" height="800px" width="800px" version="1.1" id="Layer_1" xmlns="http://www.w3.org/2000/svg" xmlns:xlink="http://www.w3.org/1999/xlink" 
	 viewBox="0 0 511.573 511.573" xml:space="preserve">
<g transform="translate(1 1)">
	<g>
		<g>
			<path d="M254.787,67.053c-103.253,0-187.733,84.48-187.733,187.733s84.48,187.733,187.733,187.733S442.52,358.04,442.52,254.787
				S358.04,67.053,254.787,67.053z M254.787,425.453c-93.867,0-170.667-76.8-170.667-170.667S160.92,84.12,254.787,84.12
				s170.667,76.8,170.667,170.667S348.653,425.453,254.787,425.453z"/>
			<path d="M85.827,85.827c3.413-3.413,3.413-8.533,0-11.947s-8.533-3.413-11.947,0c-99.84,99.84-99.84,261.973,0,361.813
				c1.707,1.707,3.413,2.56,5.973,2.56s4.267-0.853,5.973-2.56c3.413-3.413,3.413-8.533,0-11.947
				C-7.187,330.733-7.187,178.84,85.827,85.827z"/>
			<path d="M435.693,73.88c-3.413-3.413-8.533-3.413-11.947,0s-3.413,8.533,0,11.947c93.013,93.013,93.013,244.907,0,337.92
				c-3.413,3.413-3.413,8.533,0,11.947c1.707,1.707,3.413,2.56,5.973,2.56s4.267-0.853,5.973-2.56
				C535.533,335.853,535.533,173.72,435.693,73.88z"/>
			<path d="M271.853,160.92h-51.2c-5.12,0-8.533,3.413-8.533,8.533v102.4v85.333c0,5.12,3.413,8.533,8.533,8.533
				s8.533-3.413,8.533-8.533v-76.8h42.667c33.28,0,59.733-26.453,59.733-59.733C331.587,187.373,305.133,160.92,271.853,160.92z
				 M271.853,263.32h-42.667v-85.333h42.667c23.893,0,42.667,18.773,42.667,42.667C314.52,244.547,295.747,263.32,271.853,263.32z"
				/>
		</g>
	</g>
</g>
</svg>